<svg width="40" height="72" viewBox="0 0 40 72" fill="none" xmlns="http://www.w3.org/2000/svg">
<path fill-rule="evenodd" clip-rule="evenodd" d="M29.9474 30.8589H11V42.6484C11 44.8575 12.7909 46.6484 15 46.6484H25.9474C28.1565 46.6484 29.9474 44.8575 29.9474 42.6484V30.8589ZM15 45.1484C13.6193 45.1484 12.5 44.0291 12.5 42.6484V32.3589H28.4474V42.6484C28.4474 44.0291 27.3281 45.1484 25.9474 45.1484H15Z" fill="#262626"/>
<path d="M17.0132 36.0601V29.8681C17.0132 27.9569 18.5625 26.4076 20.4737 26.4076C22.3849 26.4076 23.9342 27.9569 23.9342 29.8681V36.0601C23.9342 36.4743 24.27 36.8101 24.6842 36.8101C25.0985 36.8101 25.4342 36.4743 25.4342 36.0601V29.8681C25.4342 27.1285 23.2133 24.9076 20.4737 24.9076C17.7341 24.9076 15.5132 27.1285 15.5132 29.8681V36.0601C15.5132 36.4743 15.849 36.8101 16.2632 36.8101C16.6774 36.8101 17.0132 36.4743 17.0132 36.0601Z" fill="#262626"/>
</svg>
